<mxfile host="app.diagrams.net" agent="Mozilla/5.0 (Windows NT 10.0; Win64; x64) AppleWebKit/537.36 (KHTML, like Gecko) Chrome/138.0.0.0 Safari/537.36" version="28.0.4">
  <diagram name="第 1 页" id="lQ7kAHwD93P0k8Q2mBaW">
    <mxGraphModel dx="1213" dy="703" grid="1" gridSize="10" guides="1" tooltips="1" connect="1" arrows="1" fold="1" page="1" pageScale="1" pageWidth="4681" pageHeight="3300" math="0" shadow="0">
      <root>
        <mxCell id="0" />
        <mxCell id="1" parent="0" />
        <mxCell id="9HXMbhkb09ZXv3vcBS5f-2" value="" style="shape=image;verticalLabelPosition=bottom;labelBackgroundColor=default;verticalAlign=top;aspect=fixed;imageAspect=0;image=data:image/png,iVBORw0KGgoAAAANSUhEUgAAAWMAAAEKCAIAAABIW6MkAAAgAElEQVR4Ae2dbWxc15nfqQ8FVKAFGBRoiH4oqC+MgqAAjVoLrtQUFAOlsvIhshor8gYq6K2N0EgDcEeyTInuTqyMI3pdhWGwpmCtJYZRtBOp5JJaWEsW1mg6oKeEKe5I1QspEROKpYeURIqkSZScqAPqdMS/9ejo3Je5M3NfZoYPYVjn3jn3nOc+55zffc5z3soE/7EGWAOsgUwaKMsUgX9nDbAGWAOCScGVgDXAGsisASZFZh1xDNYAa4BJwXWANcAayKwBJkVmHXEM1gBrgEnBdYA1wBrIrAEmRWYdcQzWAGuAScF1gDXAGsisASZFZh1xDNYAa4BJwXWANcAayKwBJkVmHXEM1gBrgEnBdYA1wBrIrAEmRWYdcQzWAGuAScF1gDXAGsisASZFZh1xDNYAa4BJwXWANcAayKwBB0kxNTW7q66uqqoqPHABgly5c2vrli1VVVWnOs9lFo1jsAZYAwWjAQdJca7zVHjgwtTUrP+dd5cXF4UQuLO4uPzRiY9wp2D0wIKwBlgDZhpwkBQff/jh7NSUEIICQoijRw5u2bL11p0rilBnz56trq5+8cUXt2zZsnfv3v12/O3atetHP/qRHSl9lcbevXt3795tY4L79+9nIe3S57rS5I9+9KNt27a9+OKLL7zwwhtvvPH48WOlQdl+6Sopjh45GB64sLi4/O47fkCE3ufgwYM1NTWda3+fffbZ53b8bd269eLFi3ak9FUaH3zwweuvv25jgp9//jkLaZc+i0KT27Zts6tOnj17trOzc+/evbW1tcVNCm3v41fv/+LWnSuLi8tvNTYqZsWRI0d27NhB4LAlsH379kQiYUtSSKS7u7upqcnGBIUQLKRd+iwKTdbV1X3xxRd2vbIQorm5eceOHcVNCtmjeWEgfKrznIlH8+c///muXbts1KAQYu/evbOzszam+emnn7733ns2JshC2qjMoijuH/7whzMzMza+dSAQ2LVrV3GTIit1OPG5zkoAjswaKEYNdHd3Hz58mElRjGXHMrMG3NMAk8I9XXNOrIHi1QCTonjLjiVnDbinASaFe7rmnFgDxasBJkXxlh1LzhpwTwNMCvd0zTmxBopXA0yK4i07lpw14J4GmBTu6ZpzYg0UrwaYFMVbdiz5utBAOD4fjN33/FWZFJ4XAQvAGjDTgL9/vD444vgSTjMRnvzGpMikIf6dNeCpBpgU3qif1314o/cizLXnxoy/f9xzwZkU3hQBk8IbvRdhrh1D0/XBEc8FZ1J4UwRMCm/0XoS5MilQaAsrKfZTFGH9ZZHd0gCTQghxb+nR196JPH7MHk23qh3nU3QaYFIIIe7OJTccCDEpiq72ssDuaYBJwaSweYtK9yov5+SiBpgUTAomhYsNrmizYlIwKZgURdt8XRS8MElxdy6JwQh3NFFSfgp5b26oj+4cPHJUUSiPkioK4UsjDRQmKdKTwdycD1ZSpNCe94E7QojE7Kxy2iCTwqhh8H1FA0yKUut90CGDFPjV+7946aUduicY/+53v/v+97//67U/e4/zUeoZXxa7BgqNFHfnkuH4vCc2Rduvf/3mm2++/vrrxb2LPwGCAnSGmPa0wXPnzu3ZswekWFw77rjYKzTL75AGOoama9tjDiVuPVmazQ1yeUiKhoaG4iaFUe9D91xS7n1Yr6PrPCaTotR6H+S/DA9cwGmDdOdU5zmlujMpFIXwpZEGmBSlRgqjkta9z6TQVQvf1GqAScGkMJxPcTWxpK0xfGd9aoBJwaQwJEVlIJp2L6/PhsFvrWiAScGkYFIojYIvdTTApGBSMCl0GgbfUjTApGBSMCmURsGXOhpgUjApmBQ6DaMwb40+WN535qYnsnUMTZc3R+bX9obzRABkWggzr3gnG7UCsEdT1cjTa69GhcLx+cpA9KkUrv7bMTRd5guNzyWVXGvbY26u5iwEUpwemubzPkTPjRkqeCaF0ipweXcuWeYL7T593f2BoQIkxaZA9K4GH7p6s+VmIZCizBdqP9tz+PDh4p7NnVV5aGde1bbHqAEUFCmwHCirt3MoMkhR2x7rGJp2KAujZJkUTAqjuuHsfV1S9I0+PBFNCCEKihQFspYRbq0yX8h9UiRTq00X44XW+2CbwtEmWuZo6tYT1yVFx9A0qqO3pLi39Eh+ESZFOD5f5guVN0cae8fSJ3rJynEhbOSnYFI4qnwmRWb1bjwUliMxKUCKMl+ozBdyc6MnlAKTgkZJ2U/xpErAqC4EmyLdHpgUsgYKhxSyueeVTQGHhSf7UzApMpNCriJyJXYizKRQtFogpLi39KgyEH38VDhPSBGOz2/whdLnpDIpnpaDw/9m66dQegSOSsekgHoXVlKNvWNCiAIhRWtk0itSpD9UMCWYFI42PZ3EsyWF0np1UrTvlpJXx9B0TdtwMrVqXw6WUgrH52mCCR5Ai3Vt7GP0wTI6gwVCig2+kFek+GbLYH1wpD44wqSwVHdtjFRcpCjzhdyc5AM9ExGCsfujD5Yxo8G1UdJg7P7u09cLjRQV/gFPeh+bAlEmhY3NP4ukTEgxOPFlmS9Es7CQqPKdzyKn7KMqecH37hUp/P3jQIbLpMC6rEIjRZkvxKTgOZpPph5iJgWR4t7So5q2YSGE0nqzb/5ZPKHk5S0pattjlYHosUsTnpCiwj8Qjs8XTu+jAEnRMTTtwpRZnAzEYx9PmjG+nOXNkZ4bM0SKu3PJCv8ASNHYO+bOCEjhkAI+vPSH3d8/7gkp0NlhUpj0PtwZBCkpUtBO3OGBC/IXnE4Sk28a9T7K1oagZFKU+UKtkcmyNW+W0iWRE7Qx7Dkp4MusbY/Vtsfw4kyK8bnkhrWpXx72PrA2j0ZJa9tjK6lVJkXWTU973ocQAvhQ2CGEyIoU/v7xdUWK+uAI3ARMioWVFHp/+L/7vQ+YsbApynyhy9J8CqyFZ1JkTQo6OowCQoiPP/ywp+e8lhTyaYM4Qwy9D12bgkix+/R1FzyLntsUWlJgfK4yEHVt7AOo8rz3Ud4cASPw7i6TYnDiy80tg4+F2BSI7j59vRBI8b2f/KzozxAjQFDgyp1b57s+uTAQtosUZb6QC1OwQIqFlVRD120hhPseTS0pynyhYOy+m6RojUzCosFuAFj0kdZM+hOa9TckjwfKfCEPSQHfEEgBbXhuU/zzv/j7hoY3i3t/Cm3v41znqaq1v7q6XbNTU3KFya33gfoqp+NEGKTAZhCFQwoMDLlmU5CXpLY9Bh+zJyvEmBSo4eTR/JdHPm1qKvKdbGSPJk4bxEvq2hQFS4pkahU9IHzKmBSEjHVOChh05jbF1cRSbXuMfK42fsZKihRZ6aVgSVF9fAjfbThHmBRMCvQ+AEqQYvPa5G7yaO47cxNTKsLx+U3SGrasWoR55JdOXoMApWBTmL+q8qsVUoTj8/XBEfSNMfYBZSlJ2XtJvgCQIhyfh3Hh5la3un4KD3sf6KIXiE0RjN1HibuwllT2U8ikoNqY3gfY3z9eGYjClHCOFJvee+LMTs+8YlJ8NfNKHvvoGJqu8A94SwrMwCvzhTa3DLoGCyYF0V/rp6Cvd3lzRLthNz1oSyAjKf7XxJdMCltUbZiIFZsCH/MCIQXEoPdZWEntPn2dLu0NKKTYeCiMBkP2jgvTh/GdREfMxKYYfbDs6CpbXVIsrKQgkvukQOeUbIrL8Xkmhb2VX01NlxQnognFpiCLl8om3WLVtOy7lmdMo/dBNoVCirtzSayesi/zZynVB0dORBPUVqEEl3sfYERGUgBqz0S3O6QlxYlogmaXu08KwJpqI5PC7gLXpKdLis0tg96SgmpAbXvMW1Igd/ljXlCkIDvCfVJgYjvo6QIpKvwD43PJTWtz3qh6IHdMxGKbQtO4bb2hSwoAG15MciW62fugqiCToqHrNpk2pAOnbQotKRp7x9zsfZjYFFcTS9XHh6AKF0iB+kAf86aLcTdtig1rk80od2IEApfXnO7s0aR2YX+giEhBH3Z5eqL7pJAp5oKfwoQU6KO5RgroX26rxy5NoKEqNsWxSxNk7NhSZbHDFawGhRGukSKZWh19sExGzT85cOmNtwPFPUczq7LRJQW0b2RTlDdHECGrjLKKLLdG6n0wKUgDsO88JwWKRntYqe3jphlJgYkVjtoUtKUQoep7h37NpHgyYlzTNlzmC/WNPlTGPkhTWTX+rCIzKUhdVmwKTHhx1MAhMWSbgkgx8mB59MEyyew+KeBWY1JQEdgfMLEpQISatmEPSZHuh7NNAVNCmaNJq1pxKCRt9ml/FVlLkUiBoWLUDSKFv39846Hw/EoKuXtCin1nbjIpHCr9J8lmJAUNgpBH002bgjKlxde4QxrB+jGH9uDCcRLUSOjF8V11unHiHSl3hRTYZAgjxGgh7tgUpAQqGgrsPHkNMntCCtih2NXGiTma3PvobmpqooaH3fHk2oCDMHGHviG4lJ/ShtPDFtqbFu9Q74NqoTkpHNosw3NSYPEouoHmpKg+PkSkaI1MtkYmLaraYjQCllw3qD4gQCWuS4pkajVnoGf0U0AqeNAae8dMSPHqmZtyR8ni62PZEfZSJQ2wn+LJTnC6/1HNwK/mWk43cvMIJr9i/wvkgkzLmyPkSaWxj4WVFGwK2xsGZCNSUNYQyTWbQla4lhSY2YHeR2UgSqRwYven/EmBY2WVk1NM6oD8E0ghO3R16yduol9mtEJse3sst70d2aZ4zqaobY/RPFltYex8upAOP6XbJzVauVwRzpMUlLvcWnCTMi1vjuCogXSTlgWwa2ozkYKEQcATUpQ3R2RvIiQpb47gNJBiIcXmlsEcLAuQQvv6SrngkkkhtwXbwoqfojIQtVge6BcoTVQWyy5SNF2MKxWCSIG+OjwpctbYHkq+k1u4oEihKIEuUWSekAIb1aEmwOiAnnV7H7ApKgPRHLqKTIrcKrCdT8mkSKZWsyJFY++YC6SQne1oHrqkkM1aD0nRGpm0cdKR1p4iQFDANVJQjtoA5DT3U3hFCqU4uPeRIz5kUmDKHRaYa2uD7h0XSKHNV0uKzS2D5HiHUza3vqiixBxsCnvPQ8yKFCeiCeAyrR9SkfJGOV9qS0G+Q6TAhgCbAlEcuSxnlz8p5BxNwnLvw98/fuzShL9/nAwZJoVcKFmEZVJYqZdKCRUIKTBMSK9tl02Rpo+uTmQ/xd25pEwlIgU88CRSbgHd3JUiwOXGQ+Ha9hi2JiZSyHZWbgLQU7qZ0k0iBTRfuXZ6KD0rhFhYSbVGJuuDI/n0Pig784BMChy2jP4R5GFSyOWSRdguUvTcmFFytctPoa0W+GDeW3pEfgqHSEHr0xQZZFJ0DE1XHx+iNkmksGXJlnVSwE0AcO87cxMqaui6TTtTKaWT1SXcxooS5Eu4ujE6gznmyicEU7PqgyMV/gH6vFuXAX4KOUeTsEIKxCQji0lhXe3PxbSLFNpvhdOkoGUpNOUGL5ZMrW5uGawMRKn14n44Pp9tHbVICvmT5TkpMGyMhlEfHEnb3s+Vd04XtGbUpH0CVbXtsc0tgxsPhbWkoCl8ynIyKxLlT4oyXyiWWBJCbG+PpWUjcFjJHXFKcJRU3psbL3nlzq2tW7ZUVVWd6jynqCZ/UqATqEsK2SxX8jW/NK+RKGY43uFbgU0BNFC1VriQQ/2wQgqIQTXPQ1JUHx+qD44opCDBzBVu/iup1Lxc5BkfBUiK9G43IEVteyyHHf1KkBTa8z4+6Tp/686VxcXld9/xm5z3kZWti0pTHxyhrqnSMimCeS3U/dW8RqL2y3FACozVU7VWOOUQKdAToQbpISnw0daSom/0oeL/l3VuZe4JqVTWuTasSwpkjaoFM9BpmwJiVK7tzY0jVCHq7tPXV1Kr25+eMgtwyKowD5cgKejoMApABYuLy93dz51pLIQ4d+7cnj17fr3213RhVFv85ndAChyrpUySxYO5bV1nnqkRKWDXULWm1ovXt50UFf4B2v+K8gIp0AOiSZPmVdDk12zZrWtTVAaiCjTlHK2sXiGVmpeLLil2nryWHhAxIYXSSZRlo3BWvQ+wW0sKrI7PhxTVx4fkkcHt/6WluFedEyAoIIRYXFx+q7Hx1p0rpH0E5HNJff/9f5tXBe2vm1sGUdUq1w6MlBNHZCdIsbllEF9Okgc2hUKKhq7bO09eC8bu47OWGymUedz0UggQKSoD0XtLj2iYuW/0ITaelBWSQzgHUkAGkAuvnC4Cf/943+hDXQEykqKxdwyvQ9o2CsikIL8ATE4jUtxbeoQDR3Vlo5uFQIqf9Y/LFkp6S75//+Z7xU0Kbe9jamr21Zdf0WJCWUuabb1EjSFS0MQbFDB+dYIU8CDK9VUmBa2Rp2nO6BblRgo5FwrjqyXv042NPGhhAgKe2BQQUiFFbXts46GwrjwZSUF77dLrGwUqA1EZrDBk4OtBv0Pb+8CWZSaHfWFdmeekoKPD5Hcv+hViskcTpw0ePXLQyrmkRUQKaqsoOSKFYidj/qJFUiRTq8pIAbV8uX6U+UJkgpJNUeYLNfaOUXyI1zE03XNjhsYpTZwF9PFUAtmWiDy9WghBNgUEoy6SnIuNpFC0hBeX118SKe7OJdHp0JJC6Sh1DE3vPHnNXlJgZVNWforSJIVcDzKG8xz7wNgYGgxsiquJJeotY/wyowzaCEqd015SW8VPlYFoTdswzGw5clakQI8GwqBVU8uX05TDMimgCvxKJ4P4+8fTzRVpHrs0gTWvRsjQoipbUpBs/v7xe0uPvCUFTBiZFNBn2qOZZhawpZDiSYP0hWQTA35Ee0kBjjMptO3O7I5MCiCfapvFgNL7QDHQt73CP2DUMEzEspg1RUOmsCzoJjhFw7doNrXtMSMXGpGi58bM7tPXUYnl1LThykBUXpaiLMNNH1mETWIxLY2ah+w9kZWAHOU7OZOiPjgCFxLtbS9P+pCzcM6m0JICCvSQFL+MTNKszcvx+Z4bM7qVQbvalW2K5/a8QnvTtgfzO5tbBlsjk+ij0geESJGbY888R+2v6B5bIQWNYsqtBWEiRcfQdHlzJIdWqiiQbBx8P4kU+LRqvQb2kgLa0JJiYSWFSd94a/dJse/MzaaLcadtCsyYUHyQKFMU0+X4fG17jPqGVB+Csfs7T16T7RohBJPCBlLQp1sOuEwKsKPCP6D0F9D7wPBtfXCksXdMJkU4Pi9/Ulojk5hXCp9oDhaWESmwXMrfP55uIbSrmDukqD4+RAClxonXVEiBk36owaB5BGP3y3whcn9oGW1yx8imQIIkDIYzke/og+X8ex/UM9WWIEgBMxCk0JYC+jtMCrkmPAnLvQ+loptUAqOf0DJpOQaiaQtDFUJzbZR+xvs4/YyiVQaiFf6Bhq7bxy5NEETg4Ly39AgTIihzVCzsgybvCUipZQwoCiSboj44Eozdb7oY33gofG/pka5NcXcuKdsUMIBzsGsgJG0/W+EfqPAPQDBqnAopTkQTcH8qJYU2k/GtjSJgESdm1itxMCAihOi5MSOTAoc/ya00Bz8F5WVECkRgUlDNtxQoMVJQLZED9cERLLXETZACVo/cNogUMC7kFCyGTUiB5ZXyEImcNQyNY5cmaFAZcMmZFOgGEhwhv79/vLF3DMu9qHJgpQYWeioi0Rn3Fl/fKJqiFrh+ga0NvhA6epAHRQBSNPaO3Vt6BFLkViJOk+I7b7UX93wKqgRWAg6RQi4k3U0utU4jWVqjOpfbfQhD9VUmxe7T1xt7x2rahkcfLCMa9Q5yyIuywLPlzRFs2IXV1kgfs1q17ht8ZmVSAHA5iIGmWOEfUCys3aevlzdH0LeiwUgwBWM0IEXf6EP012hmSm4y0FOKWhRSoNMaSywtrKSgIpBi09rU0nzsGqRGYiAjuiSborF3jKwYrI6vaRumEwlQLXX9FP/urb9Zj6RYWEnJ02ZIoVkFqPchf81gcssgwCaxJrDIKtOMkWVh4Kc4EU3QvEM0FRyuA7NciZ8xfYqgbRKorNXHh2jHYOuk0KZGGWUMmLwC2v/u09dHHywvrKQQc+OhMPXF0JKpF5Yxr4wRtC9CvQ94HGFwYepE2dNRUidIIYu6+/R1iFHmC00vPUL9fLPrNqRt6LpN+DDyaK5TUijzo2WdWg9vPBSGu4i8SniWplSjPO4tPcLgpREsrOeYQ0y4A+iDqZCioeu2Irz1LLRNQhk3xSIuNE5lvFZrU2hTsy6JNl96ll68MhDdefKaHBM2he2koKwpUNsea+wdS6ZWFVJAM7tPX38sBEjRdDFuQj1KUDegtSmUaDT9fOfJaxjJ3t4eg9rrgyMgBcb42aZ45tG0hRRKSdClvEjp3tKjjYfClYHosUsTmJV0dc3ylI0OetCJAEhBLgCFFDnXS8W4heRaM41sirT9gr46XhwTruXeRz6kMNEbkUKeCYL46Ce6QAqwmLZ6x6CV3NEgUsjqMnkp3Z/2nbmpe59uoujxvpWBKFaaKqR46eS1WGIJo2b0IAIvvNX5WDY85BpsX7jMvqTySon8FPK4pqKR/C9lUgBJGBfA5peYEyW/Rv45mqQQjN2v8A+4QwqtGHL7V0gB1lxNLN2dS8K1oX08/ztECm1SkMcFUmizhuOGMC2TImcTTzcX+SZlh8D4XFJrU2xvj12Oz9MR5/Lj/+bgmXVHinB83rnywEIJcqGR8eLvH0+b3LQ8IRyfT6ZWBye+FELI5WF7GH4+IgVmHJCfQvECZpW7TAErD+qSAo5Mb0mBce6M1ruVd7Qe50Q0QU0XpGiNTNId6+lYj0mJy6RAQ0DvI7m2nwWT4slXHDaFowYFSg6kOBFNjD5Yxh2Q4mpiCUfao3ZWrm3rbL2wc45JpCDx0DC0Nrn1LLIlBTkRybNY4R+AGM6RQnZMKK+GiWG46TIm0BejpgtS0KUip12XlD4CIw+Wt7d/dYBefXCkNTKJVX9MCg9IgW4IShqkQItFvcRmrXbVA/N0jEhh/pT5r1qvhHl8HKo4+mCZRkZg+cPxmQ+zMuarG6E+OHI1sYSfvCXF5fj815ojJlDTlT/bm0QKPNjQdZvukLeipm0Y09i0ia/H3oeuw0armnzuwKZQSFHhH0B7cJ8Uyvff3z+Og4LzecfcntU16NxvqMATzXFyXwDZjHInd4XF9cERYhOgjwXKmOeqLdx1R4rXDgW0WrD9Tn1wBFM26MNLru8yXwhhrDSzPWsrCSrgsPKIXXGwtkJJzZ2mos2UPqqeCEDyeEJt3TqgexNyrjtS/Nnb71MJORpQKh9VSsoUyzTocp0EdNdfZRzhc0I5tEIE9oUTWRRdmvRh00rOpAhplWLLHcXYc3S0xRaBPUyEzGCvZPDkq+7Vy+aWL5PCKVLkVh78lCcaYI5nVPu6I8WWtzoyKoUjsAZYA4oG1h0p/vXBLkUFfMkaYA1k1EBpkkLesFueN93d3f2vDvxdRqVwBNYAa0DRQGmSQnsICHjx9t/8vfL+fMkaYA1Y0UBpkoLOE6MASPHmX/daUQrHYQ2wBhQNfLOxowRXiBEgKABSvPbffq+8P1+yBlgDVjRQ9dOPS5AU3PuwUvYchzVgXQOl2fsw8mieONtjXTUckzXAGiANlCYp5PEOOcykoILnAGsgKw2srz2vTv2+Z+OB/5GVgjgya4A1UOYLrbsdd994++cFUvDKwpACkYrFYA3oamDdkeLNt9/VVYT7N01W+LovDOfIGjDXAJPCpRVi8nJJrO1db6TIZ89O80pc7L8Wxfo0JoVLpJD3p8AeDeuNFMqGHZ43b+0R0F6JJNcNN2WQ19qb7EwBkZgUjpDiRDSBndfIGYHaUN4c2dwyiLMe1i0p5BeXw/Y2kozNrzIQNdnj315htKltbhkkIwuium9ZyCqS92TTSrsePZr2+imMSNwxNI1aSIWBAI5+ASlwiqduqeR5M2Pzo48JgSzPHK08jg37sVkj4lcGouCpE42ENG8kW217zENS4NgXyEZ1w0hUh+6Timrahv9h9CGOODPKa53aFHZVTaM22TE03XNjRt51GgfqYofujqHpYOy+7t6zRuVk/T6OLDOPTx0B+qyZx7f4K2qe7JHx94+TqrFv6N25JO2ITW1V3n7WYl4Zo0GY3aevG70j5Y5NwzMmaG8ELSliiaWvNUfszcU8NSLFX/aPh+PzLxwfQn2mA3flx//DW3+9vk4whk1h1MJl1VgJG6WDMy9RF8Px+erjQziMh0iBc2KtZJFtHN1ipkTo8F5YNMAZ/ZpnAJ9o+cSAjqHpykAU22QijIlwyKi2PXZ3LlneHHGOFDjWXPe9iBTlzZFg7L6Reaj7bP43taQYn0vKqss/C/MU9p25OTjxJdgEUmxvjzV03a5pGx6fS2qPEfuzt/+KSZG7q8IKKYQQO09eu5pYQuVABRVCLKyk5M+vebla/1UhBR2zjBSo+9MxNF3eHKEjzqynbxLTiBT1wZGatuG+0Yd0ECkSwfGLOPvbSJMm2Zn/hA+mFVLgsAXbBTAXD5UBR5/AxHOBFL+MTFIXA8u9ftY/vsEX+sv+8btzydbI5MJKCijf9F5UkX/dkaLx7Xdq22N9ow8VReR2WRmIljdHtJVMtimEEDhCOn1olWxTCCFGHyyTcZ6bANqncKg3fSFxJCpFqw+O7Dx5LRi7D18JzjokK5Si5RYAKU5EE/Q47Ij64Eh9cAQnIck2Bc4fdJoU6OVp39HfPw5cekgKGFNw1rhAisvxeZCiwj+A04hBil9GJuVFD0IIJkV3U1OTXFmpTucW0K3lGN0QQoTj8wTpdKbphqGQQghhu1MNIpG1IpNic8tg3+jDe0uPkC/OSbVxD3u8i3yiB+wIkEIIcTWxBOXTB18IoavDbIuD3pcepCxw2ruWFOH4PEBGpCC8UiJ2BSr8A8p5VLApQIrxueQGX8hNUjT2jhEpqo8PaZeTMykcJ0Vj7xiOI1UgDcfE3bkk9T4QwSFSUMOQSZGunSSVbFOQg6w0AgcAABq4SURBVDPbhkG54EG8i+yphR1BpKDc0SGHTdHYO9bYO6a1y7ISRpGEzjFEFlB7mS9U3hyhcZ9wfB4mN5HC9rKgV9COyOqS4tilCXrEesA64GKJJZxFSmgIxu7XtsdADSodtim+OsEYGrFeEiYxtd/DvtGHssa1YdjhdD+f2rm5ZVDbeYFI1HJ2n77u7x+H/18hRfonIUR5c6TnxkxusKBcoCIiBTV7I1LgY45mnFaFv3+cHjHRtslPiiQgRXlzhGw6RKDRa5wgDXxXBqJXE0s1bcP5lIUim2xBYDRKSVyXFMnUKvkRlARNLnVVt/FQWHveUtpsEUJsOBAiUsB9xqSg9vhVAGed48JE9eY/0UepzBciUsBb0dB1W80y0/Xog+WcJzXoDhlUBqLy4bRpcpFXTyEFLht7x9LNKVuvO75jSvskUvj7xxHBiBRCiIau261Pu8e5kULWmyIJjnQkB6oQgkgRjs/jQZwdi74JfElKYzavBua/yvqEj1lJHKRo7B3bffr6wkqqPjgCZ5ZdpKgMRB+vQQFy4vW1pDCqntz7sKH3AaXDb0ekqAxEa9tjPTdmjFRvcl/3m2BeEfGrLimaLsYXVlLUctLtQZcUCyspNBUIJtdsi1mThU/xO4amK/wD8IP03JjZ3DIIUvTcmNGaWvS1F0IcuzRhNOuBEtcGZL1pbSLQh9QOheCV5TCRIk+fUYV/oKHrNgkJfSIjnB6uSwqyqkhOh0ix8v9WNxx44gqB+4yyMwowKWwjRcfQ9OaWwZq2YTRXkEJue0ZloL0v13iqalYCMinwnSxvjqDyUa01IoUiRlakaI1MomUSjyAt+T6QeG17LByfh82iZKdcJlOr8oiJlXeHQUcxM5Ki58bM7tPX4VJ1ghSVgejdNcckAHo1sbTBF4JWUUxQDvVKYFPYSArljHLFpnj8+EmnA6RQlK97+cIvh0i3CKy7UdL8xz5Qz1Dwte0xb0lBXSFIla55qHzU8p0gBWaR6doUGE9B5QMpdCui9qbyyVWqqe4lEXbnyWsKKfaduTn6YFnufcg51rbHatqGYfvINoU8aqObo8lNIkV5cwRj5DtPXsNLNfaOwd5s7B2jcsGQuY2kUObR/MOav2zDga/mCmVLiteCI8rLMimynnZlRIrWyOTdNetOrpRWwlTjlbLJeIlpVIhmQop0xaWPm5E8VIMzZgpfoHWbwihH5X4+pMDYCiSHi9e/NpXIhBRozHBPHLs0AWHymYdGpJAbP6wMygvT7dC/WEmtEtZlVeTc+1BIQS6JMl8IY6J/0TuWzlTOyyTMpLCz91HbHpNtChO9m//kNCmQO+ZNGEmSLSnQsIEngotu78MoR+V+DqTAhCW8F9kUREy4aZVccKkMVFOcPEkxv5La3DIo+6pAivmnEx+R0fa1apMebnCBFGjwp4em6R0tBkqTFNqduK/cubV1y5aqqqpTnedk1dgy9qHYFFhgTnOK5OwshrMlBTn/tDbFsUsTGFCglk+uEzhfjUSi+NTsTQKYieB574PgQjZFTdswhgblD7v2le0lBUZ54BdQ8gIptGOQiOYCKTqGpjf4QrmRQpnMVgq9D+3pHp90nb9158ri4vK77/hnp6ao/GwkBXx1WXXFSQwlkC0p6EuukKL6+BBG2tLpU8snUmAERMmaLim+CSDoJ4uk6LkxIw9wUF66AWr2lEvGAD0CUgCFMC7yIUW2uwEgR11SCCFkE0N58Yyk0E6W0dUJ6o9u7yNnUvTcmKFqhkxLgRR0UBgFUCSLi8vd3Rfk4unu7n799dc/X/vLOLNNYSqtTd535iZVxIIiBUmVfmVq+USKhZWUiRuF4uvWReUm0sxoU8iazximZq/kZXJJC0BBCqDwRDSxuWVQVoU2a3//+OiDZe39hZVUQ9ftbPsgscRShX/AiBTaXOhOa2RSdmHgvuynsPgJqQxEN7cMVgaiNW3DBBf4KXImRTg+j9mcpP9XfO8V5VrSxcXlH7+2H/0LAgQFhBCLi8tvNTbeunOFCiY9R7Wzs/Pb3/72/rW//3jyc9KCbkBhapk06EVpYpEoXeYWyFghsOKQhCTBFJtCbh6YTYAZDVakyp8UmOMoj31YyZfiZEuKY5cmkqnVhZUU+SnIaJLndFH61gPWSYGBp8dCbApEMeHVei5GMXMjRW17DKii5m07KXb8+VtFSQpZ0drex9TU7Ksvv6JgQojnZnOTD4xaoBKgBon7Gw+F0ZzkmY5k7cvyZBtWMlLEwMQBmSYUH6SA7ZNuogop8CvZFOZS5UyK6uND1ceHGnvHriaWFI+meY7KrxZJ0dg7Bk8EvdeJaOLYpQlMT0DRWO/yKDLg0jopUBAghYm9ppuL0c08SfHy6eswlkGKYOx+bn4KrU1RCr0P2aN5YSB8qvPc0SMHq9b+6up2GfkpsiUFmuLGQ2GZFEblndX9jJIoXVBU0Ar/AFamopF7RQpqseiT5/xptUgKmm8q59sxNC2TIivlayN7Tgr6KlBA+/GQ72DWH2yKZGoVwxYghRDi5dPXtX0c7Vsrd0qTFMpLmlzKHs2M7ZM+3SgVNMWmi3HPSYEVhw1dt/ENd5MU2PwCH234KeQWSztxmBSB0U/FSArssW6vTYEyRb/GIimqjw/tO3Ozpm0YgywYcCFSvBYcYVIY1TrD+7mRApvEghSYyGyYQU4/ZGSWYlPcnUtW+AcWVlKekIKqnS4pclLAk4ewulT+VMphWgyma1Ngb84T0YQtEM9oU9AnBAVnLynC8XlM0lGmq8vaoIm5uCn3OqF/eeI2kyKXOpkbKeAuAilg6OaSt/EzqHDVT/c7lesEwgop7i09qj4+RLvRuGxTeEIKapy6pIBq7SoakMLke07C1AdHaPZKns4Rqh1WSIEKQ8Mc5qToG304OPElpW8xwL2PZ3M0G7pu05dK2zjlIUCZFOnhcW3BWNS+UTQUPHLRlUQhBRn5sCk6hqY3Hgob+Sks1hLgJuPIMXZkwYuUN0dsGSRGauY2BTVOr0ghVxUSxhYTRqkVVkiBwjq9NqsKQ3JKIrJNofxk8ZJJ8YwUydQqFblu+6RfZVJYVHRW0UCKhq7bRt8xkAKD9umaQYmDFEKI3aevY8ca+in9rfP3j2MRFN00CaDyGQlA+pFJkf6KYnmFSbLWfypwUqCMoAeqGF6Roj2a2OALXY7PYwdt7aeLSWG94unHlHsf8NVTqVNjoAD8VTAutE1RP4Oc7mKFuFFTwR45mFoDaSkTIgW2qMxnoM6EFDVtw/RFlUlBYtgSMHp9FAfNm/TKpigoUsCaYFLYUvH0E1FIIYSQawAxAgGqu9jJKv0B0cJbP5ss76KVUnaKGPvO3Dx2aQK/mpAiyzzV6CakwG40kMorUkA8WNooMmXMBV4bWz7yun4KuZ7Q18WW7JSSsNL7YFIoSrP/MjdSwIfnFSlQHeUNpkkvsk1BN3ML9NyYMXKpukYKWvmmsJJmx64HUqQNQ7KboBBtl5BJkVslz+KpwiQFVk/LNgVZ+7RUnEgh2zU2kiKtRKPNLEEKeNqdsymSqdXBiS/BCPn1ccd9m0LZrpb2EJNd3U7YFKjNMGFgvDApsmjhdkU1IQV5JeiDRk3XaZsC+8Eiu5q2YWUQRLEpaJAS26Lks9pd0ao5KajWygIoKeR5SRMZaEIBlYX7pKAcIYN8NIGjvQ/o0DoplK3e8Th7NPOsis+t+0Ba8r6GVC8R8IQUrZFJE1K0RiZ1F0Hmq5e154uIFBsPhbV6SKZWrY/1mGgMwLJCivRudybp5POTRVJ8s2Vweu2cJyUvG0lBA+elsO5DUZPJpdamwHF7MPJ1SbHxUBjOs7tzSbtm12glxN4qsO1NSKF90MY7RArFX4DeRyHYFNhPGBuX2vjiSlIWSVEZiFrfbE7JIuOlRVIYVcj8STH6YBkdLur7MCkEAIGyKfOFatqGwVHYFPkMPWasEBQBGPKWFK2RSVqWKkPTE1KciCZkbwW+8Jhd5gkpyIdCfoocNqSg4s4YsEgKo3TyJwVS3nDgyYk2qAxMCpUU9El3kxQoGG9JIYTAwc7UD0cV8YQUOK+UgOUVKaidjK8dBQ55sLW3O6RQpudCABr7YFIYaSDf+1Z6H+ROW4ek0D0WHKTYefJaQ9ft+pwWJlosNtmjqUsKbLdXHxxxzkGA8wfLfCEakELjHJ9L0mpX2mbZaINMi+9rEo1sCvpuETTL1vbFxBxNoxTYpjDSjNX7FkmBL9g6JwUtQAIpriaWkqlVb0kBh5FzE1tQjQAszIAiOhQXKTYFosqG4FZbyPPxuPfxnD5Aa1B846EwFlBU+AfWOSnIcQNSwF/DpICfouliXHt+4nO1Kr+LPG2K/DJ/9jST4pkulLEP7O+MvaQ8IQUOxasMROmTLs+neE5uBy7k3gcchzVtw0yKMt+Tc/rIvlCW7TpQDl8tMsCBMuQroQ5IRj+FXSJtOBCigTD2aD7n0fScFPh0Y2spMnbQeTY6EcuuaoGzbcm3D1I09o5heqhrNsWxSxPppgg/BQ3moz9YOL0PeaasjfqnpLDb+IloIjc/BaWTZ2DDgRBoVeYLMSkKlBRoG8ps7jwLPuPjWpsCj+AoPSyoc3qOJk1RD8bu05TqdUgKf/84VKFrU1T4By7H5zMWaJ4RNhwI7Tx5DWNhTAomxbPqdDWxpNgUWlIEY/efPWBrCK5EIgWW0sOwkklxNbFkNOPIFnEWVlLlzRFzj6YLNoU5Kejcdlte2SiRDQdCsS+WcDJAKZBC3ptbfmfs7i/f0R37aI1MVvgH4EMqnN6HJzYFbH58Q+QJTmRT2DJdWi4ROawlBY2byqSQH3EojL28MHEWqHLfT2FOCodeXEkWq4pKhxTa8z6EEMBHeEA9Q6ypqUlRB5pHIZCi6WIcB4ikXRJoGyAXFoM5OomAdFK5dsgNej3kGSFSUDQnAiakwMlg2j0pnBADC/YK3KZw6MV1ky0dUtDRYRQQQnz84Yc9Pee1pKDTBv/4xz+SXtAgsRsyhutpIYY7s7lJEgS0pFAiOHdZGYiG4/P7ztysD46kj+0jeVzQgwkp0CUpBFJg4MPz3odzFUBJeWRk5N+2/M8yX6g0Txu8cufW+a5PLgyEFVLIpw3+4Q9/IKUwKWRVhOPz8L1jDAI2lwukuLf0qMwXkv0U1PtwmRSDE18mU6t9ow9HHyzjUC/qfdQHR45dmjh2aYI05kQA81bw1roeTScy1U3z8OHDX//p2TJfqDRPGzzXeSrjGWKyXioDUVo5Vwg2xe61c5/IxpFFdTrc2Dt2b+mRJ6QAkgqBFKRknLJTfXzo8dqJJOiUJVOrtpwySbloA4VDCiFE6fQ+ZI8mThuE6rU2ha5HExUUA4Tk0TwRTdydS25uGXTUh6etInRHloduuhZgUkDVIAVsK8y8wkQ4pwuCSeG0hjOkb5EUZFs6OhpnLiuTghZrUZfENT8FFY1XpGiNTIbj80rvA9N24UEjCV0IlI5NYV1ZFknh3OQi66IyKdYzKVBPFFLQYhCX6yeT4lmzhcOf/AIul8QzOaSQt6Ro6Lrd2DvmskezMP0UX2uOnIgmcEoATZmVCsrBIJPCQeWaJ23FpoDhZ56OC7+CFOnzR50ekNN9l2RqFRMK8Ks78ymEEMcuTfSNPiRCeTX2QTrBmhfsQ+GmnwICECnG55IbfCG2KahcHA9YIYXjQljLAKTw0LrxhBRYpVaYpOi5MbPxUNgdjybqSDg+39g7hs21PCRFz42ZDbxCDEVCvQ+aa2StOTsYi0kBP0WFf6D6+BC+rp54NOVd8K4mlhzdlkJbn+7OJTcFoo+F8JAU4fg8k+KroiFSeGLqa+sHLQBnmwLj1h1D01j/rqsr527KvQ/ncjFJWSaFv3+c5pibPGL7T0yKZyplUjzTxdNQgfQ+iBRP5XL130IjBeZBObecV1e5TIpnaiFSuG/fPhPi+RD3Pmj/Hke35Hte6+pVQZEC03xcmFavaIFJ8UwhJ6KJhZVUmS/kfjE8E+L5UEGRoufGzPPSOXgl2zJoqEwK+CmcO4jIvDiZFKp+mBSyRuQWK993Oizny6SQ/RTOHRpgXqYLK6l/9valUtjJxvw95V+NRkkRh0kh60pusfJ9p8NyvveWHtW0DbNNAZvCK1IIIb7e/CmT4lnNZ1I804UQcouV7zsd1ubLpGBSOF3r1PTZplA1Ynw9+mB535mbxr879QuTQtZsIfQ+2KaQS+RJuNBsivLmyOiDZVXKUr9mUsglzKSQteFeuLhsCprU7J6CCiAnJoVcCEwKWRvuhZkU7uk615wWVlLKoCz7KdhPkWttyvU5JkWumvPyufVMChx6ItbWffDYh3u10JwU/v5xp/dHtP6q4fj8zpPXrMcv4ZjrnBQo2Q2+EJPCvUpuTgr35LCWk1dbeFqTzr1YTAq2KdyrbcipuEjhtnYKNT8mBZPCnrop782NFOnOwSNH5TyYFLI2iiXMpGBS2FNXtacN0omkidnZ5cVFyoZJQaooogCTgklhT3WlQwYp8Kv3f/HSSzuqqqpOdZ6T8+ju7qbTBuX7HC5kDTApPCTFyMjI559//i8O9ZXmaYO/ev8Xt+5cWVxcfvcd/+zUFDWDjz/+eNu2bfvX/hKJJxsu81/ha4BJ4SEpfvKTn+zfv/+f/vTvvvuf33r82PHhlzJHq6NR70NLCu59OFoQDiXOpPCQFCjTEllLSv7L8MAFnDZId7S9j6amJocqNCfrkAaYFEwKh6qWYbJsUxiqpoB/YFIIIbBDt1elVCI2hXX1MSms66pwYjIpPC8LJoXnRcACZNZAOD7v1VHSnu+4m1k7rsRgUriiZs6kaDWQJlThHAHjoRaZFB4qn7NmDRSNBpgURVNULChrwEMNMCk8VD5nzRooGg0wKYqmqFhQ1oCHGmBSeKh8zpo1UDQaYFIUTVGxoKwBDzXApPBQ+Zw1a6BoNMCkKJqiYkFZAx5qgEnhofI5a9ZA0WiASVE0RcWCsgY81MDXmz997dB7Rb8/hXUN8gox67rimKwB0sDXmz998+2jTApSCAdYA6wBHQ38vONC0+HDTAod1fAt1gBrgDTQ3d19mElB6uAAa4A1oKsBJoWuWvgma4A18JwGmBTPqYMvWAOsAV0NMCl01cI3WQOsgec0UCKkoJ24wwMX8H5X7tzaumWL9mSg1tbWPXv2PKeDvC+ampoWpWPK8k5PXL169aOPPso/HTkFFlLWRj7hotDk4cOH7a2TaDhFP/Zhct7HRyc+kk8bPHLkyI4dO/KpKNpnt2/fbu8hQ05M+mAhtQWX252i0GRdXd0XX3yR2wvqPtXc3Lxjx46iJwUdMkgBIcTRIwe3bNl6684V+c2PHDlSU1PTufb3uU1/W7duvXjxok2JPUnmgw8+oCMR7UqWhVxXmty2bZtddbKnp6ezs3Pv3r3bt28vSlIsLi7/+LX96F8QIChw9MjB8MAF7RliZ8+e/da3vvXi2t+ePXtw7GCe/9++ffurr76aZyLy4z/4wQ+++93vynfyD7OQ+esQKaw3Tf7pn/7piy++WF1dXVdXV5SkkC0Fbe+DziV9q7FRMSvkBznMGmANFJQGnD2XVPZo4rRBI49mQSmFhWENsAYUDThLCiUzvmQNsAaKVANMiiItOBabNeCqBpgUrqqbM2MNFKkGvCeF7MvIR4nadMgnsv+1H8tzN3LLRTteY0s6NgpJSZ3qPJebbHhKmw7dyV+TVEx5CqlNx0YhoQf44/PRpDadK3dubfuTP6mqqtr/2o//75df5pO4jUlZEcN7UmjHR6zIrY2jTQc+VG3MHO6gFtbV7ZqdmsrhcXpEm46NQn7Sdf7WnSv5E02bjo1CaouJlJNVQJuOjUIKIaamZr/3ne/Q3OKsZJMjK+nYKCSScmF8FK/jPSloqgUFZEVbD9PjFDjXeapq7S/PzxdkyL8F6qZjr5BCiMXF5e7ur+bOW9eeNqacjr1CApf5N0IlHXuF/PjDD3t6zucvpJLOuc5T3/jGN6qqqj7+ze+1Os/qzvnfnqakXOBFKZOC9I5JHHSZW8AhUpAwdglpy0SVxcVl3XRsERKvTEAnDeQW0KaTv5BX7tw63/XJhYFwnqQwSaftr47ZNZ/IxqRMisB7UmjNSBNxTX7SpoMa43QLNxFJ9ydFHhuFnJqaffXlV/Kvf9p0bBQSxaQoQVdR5je16dgrJKzRurpdM4mEuSQmv5KZQ+mgVS8uLh/9rz/LJ2UhhI1JmbwC/eQ9Kcg1lSe/5XTQhYN1ql23Si+fVSD/yo3sKB3bhTx65CDV73z8KXI6PT3nT3Wes1GTVEx5dgnldGzXJEoqf5tCToeEhEcz/94HeTQ//s3v10XvI6vmypFZA6wBTzTgvU3hyWtzpqwB1kBWGmBSZKUujswaWKcaYFKs04Ln12YNZKUBJkVW6uLIrIF1qgEmxToteH5t1kBWGmBSZKWuUoh8rvPUy6+8GvlsEC+DudsIY6YQzQKoqqr6xfu/UpbMYNoC4l8YCGMlyNTU7IcffkzakePQTQ4UtQaYFEVdfFkLPzU129d3+cqdW8c/+ACTL/D/U53npqZm/e+8O3Lnjpzohe5umRRACZZF7KqrO3jkKCJPTc12d1+Ynf1qkpICDjlBDhepBpgURVpwOYpNpBiOhZHE5b4+TNNaXFz+x3+8JoSATYGZUQopyFi4cufWKy+/+sYb/6mubldPz/mW48f7+i4fPXKQ5lNRzBwF5ccKTANMigIrEIfFoamN4YELWDGhkIIioFshk4Jml0JGmvR9obv7i9v/p6/vsiw7ZlvLdzhc1BpgUhR18WUtvGxTXLlzazgW1pICbR6MkEmB7gl1Ri739f3mb3/749f2hwcuIFnZ5YHJy1nLxw8UqgaYFIVaMs7IRSYDrbLRkmJXXR22WlleXJRJIdsUAMFnn30GMRcXlz/perJChKRmm4JUURoBJkVplKPVt5BtCjyjJcXo6JNDmyYnJ4UQMimEEIr3gUhx9MhB8m4iWSWmVfk4XqFqgElRqCXjvFw4w4k2vFMGLPCr0v5p7APS/e1vf/PqKy9XVVWRhYL7SlLOvwrn4LgGmBSOq7jEMrBiLFiJU2JqKfnXYVKUfBHzC7IGbNAAk8IGJXISrIGS1wCTouSLmF+QNWCDBv4/gCgu27B3ZpYAAAAASUVORK5CYII=;" vertex="1" parent="1">
          <mxGeometry x="400" y="180" width="355" height="266" as="geometry" />
        </mxCell>
        <mxCell id="9HXMbhkb09ZXv3vcBS5f-3" value="" style="endArrow=none;dashed=1;html=1;dashPattern=1 3;strokeWidth=2;rounded=0;strokeColor=light-dark(#ff0000, #ededed);" edge="1" parent="1">
          <mxGeometry width="50" height="50" relative="1" as="geometry">
            <mxPoint x="484" y="233" as="sourcePoint" />
            <mxPoint x="484" y="393" as="targetPoint" />
          </mxGeometry>
        </mxCell>
        <mxCell id="9HXMbhkb09ZXv3vcBS5f-4" value="" style="endArrow=none;dashed=1;html=1;dashPattern=1 3;strokeWidth=2;rounded=0;strokeColor=light-dark(#ff0000, #ededed);" edge="1" parent="1">
          <mxGeometry width="50" height="50" relative="1" as="geometry">
            <mxPoint x="530" y="233" as="sourcePoint" />
            <mxPoint x="530" y="393" as="targetPoint" />
          </mxGeometry>
        </mxCell>
        <mxCell id="9HXMbhkb09ZXv3vcBS5f-5" value="" style="endArrow=none;dashed=1;html=1;dashPattern=1 3;strokeWidth=2;rounded=0;strokeColor=light-dark(#ff0000, #ededed);" edge="1" parent="1">
          <mxGeometry width="50" height="50" relative="1" as="geometry">
            <mxPoint x="570" y="234" as="sourcePoint" />
            <mxPoint x="570" y="394" as="targetPoint" />
          </mxGeometry>
        </mxCell>
        <mxCell id="9HXMbhkb09ZXv3vcBS5f-6" value="" style="endArrow=none;dashed=1;html=1;dashPattern=1 3;strokeWidth=2;rounded=0;strokeColor=light-dark(#ff0000, #ededed);" edge="1" parent="1">
          <mxGeometry width="50" height="50" relative="1" as="geometry">
            <mxPoint x="610" y="235" as="sourcePoint" />
            <mxPoint x="610" y="395" as="targetPoint" />
          </mxGeometry>
        </mxCell>
        <mxCell id="9HXMbhkb09ZXv3vcBS5f-7" value="" style="endArrow=none;dashed=1;html=1;dashPattern=1 3;strokeWidth=2;rounded=0;strokeColor=light-dark(#ff0000, #ededed);" edge="1" parent="1">
          <mxGeometry width="50" height="50" relative="1" as="geometry">
            <mxPoint x="660" y="234" as="sourcePoint" />
            <mxPoint x="660" y="394" as="targetPoint" />
          </mxGeometry>
        </mxCell>
        <mxCell id="9HXMbhkb09ZXv3vcBS5f-8" value="" style="endArrow=none;dashed=1;html=1;dashPattern=1 3;strokeWidth=2;rounded=0;strokeColor=light-dark(#ff0000, #ededed);" edge="1" parent="1">
          <mxGeometry width="50" height="50" relative="1" as="geometry">
            <mxPoint x="700" y="233" as="sourcePoint" />
            <mxPoint x="700" y="393" as="targetPoint" />
          </mxGeometry>
        </mxCell>
      </root>
    </mxGraphModel>
  </diagram>
</mxfile>
